<?xml version="1.0" encoding="UTF-8"?>
<svg id="Layer_4" xmlns="http://www.w3.org/2000/svg" viewBox="0 0 144 144">
  <defs>
    <style>
      .cls-1 {
        fill: #fdebde;
      }

      .cls-2, .cls-3 {
        stroke: #8e4b14;
        stroke-miterlimit: 10;
        stroke-width: .25px;
      }

      .cls-2, .cls-4 {
        fill: #ede5ab;
      }

      .cls-5 {
        fill: #45c2c9;
      }

      .cls-6, .cls-3 {
        fill: #8e4b14;
      }

      .cls-7 {
        fill: #f58a5e;
      }

      .cls-8 {
        fill: #eada8f;
      }

      .cls-9 {
        fill: #38a58a;
      }

      .cls-10 {
        fill: #eb5370;
      }
    </style>
  </defs>
  <path class="cls-9" d="M114.58,63.71c-6.8-6.89-9.68-8.92-10.68-8.78-.03,0-.19.03-.41.05-.57.05-1.79.15-3.24-.32-1.38-.45-2.36-1.21-2.9-1.7.34-.06.8-.11,1.36-.09,2.43.07,4.14,1.39,4.21,1.25.08-.14-1.68-1.65-4.32-2.97-1.69-.84-3.17-1.32-4.18-1.6-.05-.47-.26-1.87-1.38-3.22-1.16-1.39-2.57-1.85-3.02-1.98.31.8.82,1.85,1.65,2.96.6.81,1.22,1.44,1.74,1.92-1.13-.28-2.26-.56-3.39-.84-.49.42-1.15.9-1.99,1.33-1.08.54-2.08.81-2.85.95.05-.34.2-1.1.82-1.73,1.09-1.11,2.68-.87,2.89-.83-1.39-.53-2.79-1.06-4.18-1.6-.22-.62-.59-1.5-1.21-2.5-.01-.02-.15-.24-.3-.47-.4-.59-1.18-1.63-2.59-2.9.05.58.22,1.57.79,2.67.67,1.29,1.57,2.1,2.06,2.49-1.76-.31-3.03-.92-3.83-1.38-1.04-.6-1.84-1.07-2.71-1.95-.74-.75-1.12-1.4-1.93-1.58-.56-.13-1.24-.02-1.31.29-.12.5,1.39,1.41,2.09,1.83,3.45,2.08,17.73,6.76,25.87,9.35"/>
  <g>
    <path class="cls-2" d="M77.12,24.67c-.11-1.6.31-2.29.71-2.62.37-.3.69-.28,1.2-.64.67-.48,1-1.16,1.17-1.66.53,1.21.37,2.59-.41,3.59-.97,1.25-2.46,1.32-2.67,1.32Z"/>
    <path class="cls-3" d="M77.55,24.03c.12-.84.39-1.12.61-1.22.26-.11.59-.05.88-.31.11-.1.17-.22.2-.29.02.15.06.58-.19,1-.16.27-.37.42-.46.49-.41.29-.84.32-1.04.33Z"/>
  </g>
  <path class="cls-8" d="M20.81,106.88c.84,1.42,1.73,3.3,2.29,5.66,0,.02.05.2.09.41.63,2.92,1.25,16.03,1.51,22.15-.01,1.15-.03,2.3-.04,3.46.87.03,1.74.05,2.6.08-.03-1.18-.05-2.37-.08-3.55-.36-5.29-1.27-19.2-.93-21.96.03-.24.06-.47.06-.47.53-1.64,1.06-3.27,1.6-4.91"/>
  <path class="cls-4" d="M20.81,106.88c1.05.32,2.74.76,4.86.88,1.7.1,3.48-.01,8.62-1.01,5.96-1.16,6.36-1.55,7.24-1.07,1.53.83,1.59,2.7,2.18,11.55,0,0,.58,8.7,1.22,16.78.13,1.66.25,3.03.33,3.94h2.43c-.09-1.44-.18-2.89-.26-4.33-.57-3.43-1.2-8.23-1.38-13.99-.15-4.97.2-9.27.92-17.86,0,0,.6-7.25,3.15-22.66.11-.69.36-2.13.99-3.94,1.06-3.05,2.49-5.1,2.96-5.78,3-4.36,6.62-11.05,8.27-14.12,0,0,7.08-13.08,12.54-20.42.19-.25.52-.68,1.05-.79.93-.2,1.48.77,3.55,1.9,1.22.67,1.95.85,2.43.92.7.11,1.66.26,2.17-.26.67-.68.15-2.13-.07-2.76-.7-1.98-2.22-3.33-3.15-4.14-1.17-1.01-1.59-1.08-2.04-1.9-.45-.83-.23-1.16-.66-2.76-.4-1.47-.62-2.3-1.38-2.89-.65-.5-1.66-.79-2.56-.53-1.75.52-2.3,2.94-2.56,4.07-.46,2.02.07,2.63-.26,4.73-.25,1.63-.81,2.8-1.58,4.27-3.06,5.87-6.93,11.69-7.82,13-3.8,5.67-3.43,5.06-4.27,6.37-3.4,5.3-3.57,6.14-5.91,9.46-1.71,2.42-3.4,4.78-6.17,7.42-2.54,2.42-4.59,4.37-7.88,5.58-2.1.77-2.21.33-7.03,1.44-3.72.86-5.57,1.29-7.29,2.23-1.15.63-4.44,2.44-6.15,6.1-1.17,2.51-1.02,5-.67,9.88.25,3.51.76,6.39,1.17,8.37-.73,1.95-1.45,3.91-2.18,5.86.22,8.26.45,16.52.67,24.78.06,1.23.11,2.46.17,3.68h3.01c-.11-1.34-.22-2.68-.33-4.02-.17-7.81-.33-15.63-.5-23.44.72-1.13,1.55-2.66,2.17-4.56.91-2.75,1.05-5.17,1.01-6.83"/>
  <path class="cls-6" d="M19.47,138.91h-3.01c-.06-1.23-.11-2.46-.17-3.68h2.78c.13,1.23.27,2.46.4,3.68Z"/>
  <path class="cls-6" d="M27.27,138.63c-.87-.03-1.74-.05-2.6-.08.01-1.15.03-2.3.04-3.46.83,0,1.66-.01,2.49-.02.03,1.18.05,2.37.08,3.55Z"/>
  <path class="cls-6" d="M47.68,137.95h-2.43c-.12-1.41-.23-2.83-.35-4.24.84-.03,1.68-.06,2.52-.09.09,1.44.18,2.89.26,4.33Z"/>
  <g>
    <path class="cls-2" d="M72.4,26.99c.03-.25.05-.65-.04-1.12-.06-.33-.2-1.1-.79-1.65-.43-.4-.7-.28-1.2-.64-.67-.48-1-1.16-1.17-1.66-.53,1.21-.37,2.59.41,3.59.78,1,2.02,1.33,2.22,1.38.23.06.43.08.56.1Z"/>
    <path class="cls-3" d="M71.85,26.21c-.12-.84-.39-1.12-.61-1.22-.26-.11-.59-.05-.88-.31-.11-.1-.17-.22-.2-.29-.02.15-.06.58.19,1,.16.27.37.42.46.49.41.29.84.32,1.04.33Z"/>
  </g>
  <g>
    <path class="cls-3" d="M75.58,22.41v-3.15"/>
    <ellipse class="cls-3" cx="75.62" cy="18.66" rx=".89" ry=".84"/>
  </g>
  <g>
    <path class="cls-3" d="M74.19,22.91c-.36-.99-.73-1.98-1.09-2.98"/>
    <ellipse class="cls-3" cx="72.93" cy="19.26" rx=".89" ry=".84"/>
  </g>
  <ellipse cx="74.65" cy="28.5" rx=".45" ry=".9" transform="translate(-4.25 41.14) rotate(-30)"/>
  <ellipse cx="81.17" cy="33.89" rx=".44" ry=".32" transform="translate(-6.07 45.13) rotate(-30)"/>
  <ellipse cx="82.77" cy="33.99" rx=".44" ry=".32" transform="translate(-5.91 45.94) rotate(-30)"/>
  <path class="cls-6" d="M24.6,80.32c.21.26.55.36.81.34.46-.03.49-.41.98-.6.72-.28,1.22.31,1.62,0,.3-.23.37-.84.13-1.11-.22-.25-.75-.12-1.78.14-.95.24-1.89.49-1.91.89,0,.13.08.23.16.33Z"/>
  <path class="cls-6" d="M34.04,87.51c-.49-.31-.46-1.08-.45-1.48.03-1.05.52-3.22,1.92-3.35.85-.08,1.74.63,2.07,1.5.37.99.03,2.23-.62,2.53-.37.18-.66-.04-1.16.25-.38.22-.37.44-.74.59-.3.12-.72.15-1.02-.05Z"/>
  <path class="cls-6" d="M28.94,78.43c-.16.35.38.64.67,1.54.31.95-.11,1.22.12,2.12.32,1.24,1.49,2.14,1.84,1.96.22-.11-.05-.58.28-1.12.28-.46.65-.4,1.31-.9.39-.3.97-.74,1.06-1.37.06-.41-.23-.88-.81-1.8-.44-.7-.66-1.05-.94-1.17-.44-.18-.65.07-1.86.33-1.14.24-1.53.14-1.66.42Z"/>
  <path class="cls-6" d="M35.61,77.53c-.56.52-.72,1.13-.8,1.48-.13.52-.24.98,0,1.29.26.34.69.21,1.05.66.2.26.1.35.28.51.33.3.73.02,1.57.16.61.1.63.28.92.23.74-.15,1.05-1.44,1.1-1.64.11-.45.44-1.83-.47-2.74-.77-.77-1.87-.65-2.09-.63-.22.02-.93.11-1.55.68Z"/>
  <path class="cls-6" d="M39.15,85.74c-.4-.13-.47-1.07-.4-1.66.1-.84.54-1.38,1.19-2.18.64-.79,1.07-1.31,1.83-1.57.09-.03,1.23-.41,1.62.05.27.32.02.86.35,1.08.2.14.38-.02.54.12.31.26.02,1.09-.07,1.33-.17.47-.3.85-.65,1.1-.65.47-1.23-.13-2.2.1-1.33.32-1.69,1.8-2.22,1.62Z"/>
  <path class="cls-6" d="M44.07,78.84c-.25.42-.36,1.07-.07,1.45.49.65,2.06.4,2.93-.37.65-.57.84-1.36.89-1.57.11-.48.09-.86.05-1.29-.1-1.31-.53-1.62-.3-2.16.28-.66,1.19-.81,1.15-.91-.03-.08-.67,0-1.29.31-1.03.54-1.51,1.49-1.55,1.59-.47.99-.08,1.41-.61,2.02-.45.51-.87.38-1.2.92Z"/>
  <path class="cls-6" d="M39.22,76.17c0,.31.35.62.68.72.57.16.84-.38,1.52-.37.75.02.85.7,1.52.73,1.04.05,1.84-1.57,1.94-1.76.15-.32.58-1.2.26-2.16-.12-.36-.22-.66-.47-.77-.64-.28-1.28.99-3.16,2.13-1.32.8-2.29.96-2.28,1.48Z"/>
  <path class="cls-6" d="M45.34,71.56c-.06.48.14.86.21.98.47.84,1.63,1.18,1.92.89.22-.22-.24-.65-.02-1.13.23-.5.84-.33,1.6-.87.06-.04,1.02-.74,1.15-1.88.03-.28.09-.8-.24-1.22-.29-.37-.81-.56-1.26-.49-.64.11-.68.69-1.59,1.71-1,1.12-1.68,1.24-1.78,2.02Z"/>
  <path class="cls-6" d="M49.68,66.4c1.62.67,2.16.54,2.35.31.35-.41-.35-1.21.09-1.94.15-.26.29-.24,1.42-.91,1.14-.66,1.26-.82,1.34-.95.3-.49.37-1.27-.04-1.86-.32-.45-.79-.59-.95-.64-.67,1.02-1.38,2.06-2.12,3.12-.7.99-1.39,1.94-2.08,2.85Z"/>
  <path class="cls-6" d="M52.12,72.56c-.44-.6-.88-1.4-.61-2.03.26-.61.95-.5,1.37-1.14.62-.96-.38-2.04.06-2.87.26-.48,1.04-.93,3.37-.74-.98,1.41-1.97,2.93-2.94,4.57-.44.75-.86,1.49-1.26,2.21Z"/>
  <path class="cls-6" d="M54.58,59.11c1.38.74,2.02.66,2.34.42.53-.39.21-1.22.96-2.05.52-.58.88-.39,1.12-.88.34-.68-.32-1.18-.11-2.41.06-.35.15-.91.56-1.13.51-.27,1.08.24,1.31.04.17-.15.13-.68-.84-2.39-.95,1.39-1.92,2.85-2.88,4.36-.86,1.36-1.68,2.71-2.46,4.02Z"/>
  <path class="cls-6" d="M56.7,65.14c-.65-.75-.7-1.26-.63-1.57.16-.73,1.01-.82,1.19-1.66.13-.6-.25-.77-.1-1.44.03-.13.25-1,1-1.21.54-.15,1.18.1,1.58.64-1.01,1.75-2.02,3.5-3.03,5.25Z"/>
  <path class="cls-6" d="M60.46,58.58c-.85-1.05-.9-1.62-.74-1.94.17-.35.55-.37.7-.82.16-.48-.2-.7-.08-1.17.15-.6.89-.89,1.15-1,.74-.29,1.42-.14,1.69-.06-.91,1.66-1.82,3.32-2.73,4.99Z"/>
  <path class="cls-6" d="M60.55,49.78c.32.07.79.15,1.37.15.49,0,.85,0,1.26-.14.15-.05,1.17-.4,1.55-1.36.27-.67.1-1.33,0-1.72-.2-.8-.54-.94-.57-1.6-.04-.73.33-1.22.28-1.25-.1-.05-1.03,1.6-1.9,2.98-.77,1.24-1.48,2.23-1.99,2.92Z"/>
  <path class="cls-6" d="M63.54,52.97c-1.5-.94-1.8-1.32-1.74-1.46.08-.17.62.06,1.2-.26.45-.25.52-.6.85-1,.29-.35.81-.77,1.81-1-.71,1.24-1.41,2.49-2.12,3.73Z"/>
  <path class="cls-6" d="M64.74,43.38c1.03.62,1.47.61,1.67.45.3-.24.01-.74.33-1.48.16-.38.32-.44,1.13-1.26.84-.85,1.26-1.28,1.31-1.63.03-.23.03-.86-1.06-1.74-1.13,1.89-2.25,3.77-3.38,5.66Z"/>
  <path class="cls-6" d="M66.31,48.12c-1.03-1.81-1.04-2.48-.79-2.73.23-.23.56.02,1.08-.25.76-.4.71-1.3,1.31-1.46.18-.05.47-.04.89.27-.83,1.39-1.66,2.78-2.48,4.17Z"/>
  <path class="cls-6" d="M69.25,43.2c-.29-.67-.58-1.61-.17-2.36.52-.96,1.88-1.02,1.91-1.66.03-.61-1.17-.85-1.13-1.51.03-.48.71-.97,1.28-.95.44.01.57.31,1.08.38.48.07.91-.13,1.18-.29-1.38,2.13-2.77,4.26-4.15,6.39Z"/>
  <path class="cls-6" d="M69.19,35.78c1.7.57,2.25.52,2.38.31.19-.33-.74-.88-.65-1.78.08-.8.87-1.06.83-1.78-.02-.46-.37-.82-.63-1.03-.15.62-.38,1.35-.72,2.14-.38.87-.81,1.59-1.2,2.15Z"/>
  <path class="cls-6" d="M73.26,32.73c-.18-.2-.2-.66.06-.9.3-.28.83-.14,1.01.11.2.28-.07.61.18,1.05.04.07.11.17.12.32,0,.04.02.26-.1.4-.22.24-.79.13-.92-.14-.1-.21.11-.41-.02-.62-.09-.14-.2-.1-.32-.22Z"/>
  <path class="cls-6" d="M72.46,35.75c-.22-.02-.41-1.49-.04-1.64.19-.08.35.26.86.29.34.02.51-.12.64,0,.14.12.14.43,0,.57-.21.2-.56-.11-.93.06-.4.19-.4.74-.53.73Z"/>
  <path class="cls-6" d="M19.99,82.6c.3.66.57.81.75.81.26,0,.36-.25,1.21-.98.43-.36.56-.44.68-.49.46-.2.71-.09.89-.25.16-.15.25-.51-.13-1.48-.52.35-1.04.71-1.56,1.07-.63.44-1.24.87-1.83,1.31Z"/>
  <path class="cls-6" d="M19.11,85.35c-.86.29-1.06,1.48-1.29,2.93-.05.29-.33,2.01.13,2.18.25.09.43-.39,1.12-.78,1.2-.69,2.35-.23,2.54-.72.12-.31-.34-.5-.4-1.23-.05-.6.24-.77.17-1.17-.13-.75-1.39-1.5-2.27-1.21Z"/>
  <path class="cls-6" d="M23.03,87.74c-.27-.22.48-1.08.08-1.97-.21-.46-.5-.44-.66-.87-.29-.81.44-1.76.57-1.93.97-1.25,2.82-1.71,3.12-1.29.28.39-1.13,1.2-1.25,2.99-.05.81.21,1.11-.04,1.74-.39.99-1.55,1.56-1.82,1.34Z"/>
  <path class="cls-6" d="M26.72,87.3c-.81-.53-.46-2.21-.25-3.2.36-1.74,1.26-3.43,1.7-3.33.34.08-.04,1.14.68,2.46.51.93,1.03,1.01,1.1,1.7.11,1.02-.92,1.83-1.02,1.91-.53.41-1.57.88-2.2.47Z"/>
  <path class="cls-6" d="M21.46,91.11c-.61-.31-1.81.45-2.27,1.46-.23.5-.42,1.38,0,1.87.28.33.61.2.81.51.36.56-.42,1.4-.13,1.74.28.33,1.29-.13,1.34-.15.72-.34,1.66-1.15,1.7-2.2.02-.56-.24-.48-.98-2.37-.22-.57-.26-.74-.47-.85Z"/>
  <path class="cls-6" d="M24.22,93.19c-.19-.06-.27-.26-.36-.49-.19-.48-.2-1.06.23-2.31.39-1.14.58-1.7.91-1.93.88-.61,2.36-.25,3.07.57.36.41.48.91.55,1.17.13.51.27,1.06.02,1.36-.42.5-1.36-.34-2.48.08-1.1.42-1.44,1.7-1.95,1.55Z"/>
  <path class="cls-6" d="M31.56,86.47c-.72-.06-1.55.7-1.78,1.53-.22.78.25,1.06,1.74,4.07.54,1.08.72,1.54,1.21,1.65.67.15,1.45-.47,1.78-1.12.29-.58.38-1.46-.02-1.76-.38-.28-.9.17-1.23-.11-.34-.29.05-.93-.02-1.82-.08-1.06-.79-2.36-1.67-2.44Z"/>
  <path class="cls-6" d="M35.35,92.39c.26.51.95.63,1.19.68.7.13,1.29-.12,2.23-.53.6-.26.9-.39,1.1-.57.7-.63,1.22-2,.55-3.14-.54-.91-1.69-1.42-2.57-1.14-.47.15-.87.85-1.65,2.25-1,1.79-.99,2.18-.85,2.46Z"/>
  <path class="cls-6" d="M42.33,90.48c-.38-.09-.74.17-.95.32-.81.57-1.03,1.7-.91,2.52.13.94.64.99.66,1.95.01.59-.17.96.08,1.25.21.24.6.3.89.23.76-.18,1.06-1.28,1.19-1.74.51-1.85.06-4.31-.95-4.54Z"/>
  <path class="cls-6" d="M44.68,83.8c-.34.05-.31.61-.81,1.12-.5.52-.85.29-1.19.74-.2.27-.12.41-.23,1.72-.08.97-.14,1.06-.06,1.36.11.42.44,1.06,1,1.21.91.25,2.12-.9,2.23-1.95.07-.71-.41-.76-.45-1.74-.04-1.01.45-1.55.08-2.1-.11-.17-.34-.39-.57-.36Z"/>
  <path class="cls-6" d="M51.63,73.63c-1.89.44-2.5,1.13-2.71,1.7-.25.68.17.97,0,2.23-.17,1.31-.74,1.77-.46,2.41.19.45.69.73,1.31.9.11-.98.29-2.07.57-3.25.37-1.52.83-2.86,1.29-3.99Z"/>
  <path class="cls-6" d="M48.44,81.38c-.49-.34-1.28-.38-1.69,0-.6.57.31,1.44,0,3.45-.12.78-.37,1.35-.11,2.15.04.13.28.85.65.87.39.02.83-.71.95-1.39.17-.93-.36-1.22-.14-1.98.21-.71.73-.68.9-1.39.12-.53,0-1.31-.57-1.71Z"/>
  <path class="cls-6" d="M48.22,90.97c-.58-.8-1.48-1.14-2.17-.89-.72.26-.95,1.06-1.06,1.41-.29.99-.07,2.31.63,2.66.34.17.66.05.92.35.22.26.15.53.38.71.21.16.51.13.72.08.2-1.44.39-2.89.59-4.33Z"/>
  <path class="cls-6" d="M46.59,103.07c-.29-.08-.71-.24-.98-.63-.37-.52-.1-.95-.35-1.58-.34-.84-1.07-.71-1.5-1.44-.45-.78-.4-2.28.65-2.96.9-.58,2.22-.36,2.99.6-.27,2-.55,4-.82,6Z"/>
  <path class="cls-6" d="M16.74,98.17c2.24.15,2.83.64,2.96,1.06.1.34-.15.5-.23,1.28-.12,1.1.3,1.5.17,2.14-.1.5-.52,1.13-1.95,1.7-.32-2.06-.64-4.12-.95-6.18Z"/>
  <path class="cls-6" d="M25.73,94.46c-.34-.25-1.65.66-2.41,1.9-.54.87-1,2.21-.54,2.63.37.33,1.04-.19,1.53.22.36.3.13.7.52,1.27.28.41.83.85,1.29.78.58-.1,1.12-1.01,1.01-2.26.2.06.44.1.52,0,.12-.17-.33-.6-.93-1.49-.59-.87-.89-1.32-.97-1.96-.08-.66.15-.95-.02-1.08Z"/>
  <path class="cls-6" d="M27.21,96.31c-.03-.42-.02-.95.13-1.53.46-1.8,1.87-2.77,2.33-3.06.79.59,1.23,1.22,1.46,1.62.39.67.81,1.38.56,2.15-.21.66-.8.98-.86,1.01-.26.14-.56.21-1.74.09-.48-.05-1.12-.13-1.87-.28Z"/>
  <path class="cls-6" d="M32.68,97.52c-.16-.29-.08-.61,0-.9.26-.99,1.14-1.76,2.09-2.07.57-.18,1.88-.43,2.3.17.49.7-.34,2.36-1.59,2.99-.98.49-2.43.47-2.8-.19Z"/>
  <path class="cls-6" d="M28.62,101.89c-.51-.4-.37-1.49-.07-2.17.48-1.09,1.79-1.99,2.94-1.71,1.64.39,2.26,3.01,1.45,4.43-.49.87-1.6,1.45-2.01,1.17-.38-.25.05-1.09-.42-1.51-.51-.46-1.35.21-1.88-.21Z"/>
  <path class="cls-6" d="M21.99,107.22c-.33-2.21.5-3.82,1.43-3.99.66-.12,1.6.45,1.9,1.21.31.78-.24,1.36.1,2.25.21.56.65.91.95,1.1-.7-.07-1.42-.16-2.15-.25-.76-.1-1.5-.2-2.22-.32Z"/>
  <path class="cls-6" d="M27.86,107.74c-1.11-2.16-1.26-3.96-.57-4.44.44-.31,1.37-.16,1.94.3.55.45.36.86.83,1.22.85.64,2.05-.25,2.59.27.21.2.38.68-.09,1.98-.69.13-1.41.26-2.15.37-.88.13-1.73.23-2.55.31Z"/>
  <path class="cls-6" d="M39.28,100.44c-.07-.03-.71-.31-.97-.94-.11-.27-.05-.36-.18-.69-.19-.49-.48-.67-.6-.88-.56-.9,1.2-3.55,2.08-3.32.44.12.26.84,1.18,2.11.47.65.64.64.81,1.09.24.62.33,1.75-.45,2.38-.53.43-1.28.49-1.87.24Z"/>
  <path class="cls-6" d="M41.57,103.46c0,.56-.06.67.03.97.19.64.8,1.32,1.36,1.24.43-.06.66-.56.88-1,.7-1.46.32-2.9.27-3.08-.08-.29-.55-1.97-1.36-1.99-.64-.01-1.3,1.02-1.39,1.9-.06.62.2.79.21,1.96Z"/>
  <path class="cls-6" d="M46.59,105.52c-1.19.08-1.64.46-1.84.78-.28.44-.09.77,0,2.32.08,1.35,0,2.32,0,2.32,0,.99-.16,1.43.13,1.74.3.31.81.31,1.19.25.17-2.47.35-4.94.52-7.41Z"/>
  <path class="cls-6" d="M43.23,111.37c.66.35.87.72.93,1,.13.54-.23.97.04,1.37.18.28.41.17.61.42.34.44-.18.96-.15,1.98.02.97.51,1.31.27,1.79-.2.4-.73.55-1.2.61-.17-2.39-.33-4.78-.5-7.17Z"/>
  <path class="cls-6" d="M45.95,118.42c-.62.56-.95.86-.95.86h0s-.34.35-.32.67c0,.04.02.15.29.45.4.45.55.4.64.61.17.38-.28.68-.19,1.15.04.21.19.49.72.77-.06-1.5-.12-3-.18-4.5Z"/>
  <path class="cls-6" d="M43.96,121.86c.29.62.62.86.88.95.25.09.43.05.51.19.15.25-.36.58-.38,1.15-.02.43.26.62.38.96.17.44.08,1.17-.98,2.42-.14-1.89-.27-3.78-.41-5.67Z"/>
  <path class="cls-6" d="M46.43,126.62c-.35.25-.79.66-1.02,1.28-.19.5-.29,1.27,0,1.44.17.1.35-.08.48.03.17.14,0,.5-.1,1.15-.09.61-.15,1.04.06,1.28.3.33.99.16,1.22.09-.22-1.75-.43-3.51-.65-5.26Z"/>
  <path class="cls-6" d="M44.72,132.25c.62-.01.95-.02.95-.02h0c.25.45.35.51.35.51.18.12.32.04.38.13.06.09.04.29-.35.8-.4.01-.81.03-1.21.04-.04-.49-.08-.97-.11-1.46Z"/>
  <path class="cls-6" d="M22.23,109.94c1.06-.35,1.44-.01,1.51.05.18.17.29.48,0,2.12-.15.84-.31,1.52-.42,1.98-.1-.71-.25-1.5-.49-2.35-.18-.66-.39-1.26-.6-1.8Z"/>
  <path class="cls-6" d="M27.58,108.6c-.87,1.36-1.49,1.63-1.91,1.59-.23-.02-.41-.14-.58-.04-.35.21-.18,1.08-.08,1.66.21,1.15.52,1.4.35,1.89-.2.57-.77.67-.73.96.03.21.34.44,1.5.62-.05-.5-.08-1.25.07-2.15.08-.51.19-.87.59-2.11.22-.68.48-1.49.79-2.41Z"/>
  <path class="cls-6" d="M23.53,116.01c.92.27,1.19.61,1.25.89.1.43-.3.72-.15,1.2.13.41.51.41.69.81.21.46-.05.98-.23,1.35-.32.67-.82,1.06-1.14,1.27-.14-1.84-.28-3.68-.42-5.52Z"/>
  <path class="cls-6" d="M26.14,116.2c-.14.08-.65.37-.78.93-.07.28-.02.57,0,.69.05.31.15.52.19.6.05.12.69,1.56.24,2.64-.22.54-.58.67-.5.96.09.34.66.47,1.09.54-.08-2.12-.16-4.24-.24-6.36Z"/>
  <path class="cls-6" d="M24.06,123.37c.64-.15.89-.04.99.08.21.26-.13.62,0,1.2.12.55.51.54.77,1.12.27.6.31,1.58-.27,2.01-.46.33-1.08.16-1.25.11-.08-1.51-.17-3.01-.25-4.52Z"/>
  <path class="cls-6" d="M26.68,128.05c-.1.04-.69.3-.93.96-.04.1-.24.66,0,1.16.13.26.27.29.27.46,0,.35-.63.38-.77.81-.14.42.28.93.54,1.16.48.41,1.06.4,1.21.4-.1-1.65-.21-3.3-.31-4.94Z"/>
  <path class="cls-6" d="M24.56,133.1c.98-.05,1.28.1,1.34.27.05.15-.09.32,0,.42.14.16.58-.13.69,0,.09.1-.07.42-.23.62-.46.58-1.28.67-1.72.68-.03-.66-.06-1.33-.09-1.99Z"/>
  <path class="cls-6" d="M17.19,106.06c.15.04.7.21,1.01.74.29.49.34,1.23,0,1.5-.35.28-.82-.17-1.14.08-.51.39.26,1.79-.24,2.21-.16.13-.49.2-1.25-.15.54-1.46,1.08-2.92,1.63-4.38Z"/>
  <path class="cls-6" d="M20.12,108.53c-.35-.08-.86-.13-1.25.14-.47.32-.38.82-.73,1.82-.5,1.4-1.13,1.64-.99,2.26.07.33.37.78,1.48,1.18l-.05-2.48c.52-.97,1.03-1.94,1.55-2.91Z"/>
  <path class="cls-6" d="M15.61,112.46c.42.72.8,1.29,1.09,1.69.41.57.62.8.57,1.12-.08.55-.8.52-.99,1.12-.2.65.52,1.12.32,1.75-.13.4-.54.62-.82.73-.06-2.13-.12-4.27-.17-6.4Z"/>
  <path class="cls-6" d="M18.67,115.96c-.86.13-1.14.4-1.24.64-.14.34.11.56.25,1.4.08.48.23,1.33-.16,1.62-.27.2-.61,0-.73.19-.13.21.16.63.38.86.52.54,1.27.58,1.6.57-.04-1.76-.08-3.53-.11-5.29Z"/>
  <path class="cls-6" d="M15.86,121.59c.22.07.66.24,1.02.66.09.11.29.33.4.66.29.87-.3,1.56,0,1.85.24.24.74-.11.88.09.17.24-.31,1.06-1.06,1.41-.44.21-.86.2-1.11.18-.04-1.61-.09-3.23-.13-4.84Z"/>
  <path class="cls-6" d="M18.81,122.38c-.68-.1-.88-.02-.93.08-.06.15.23.29.33.76.05.25,0,.38.11.49.12.13.35.12.52.09-.01-.47-.02-.94-.03-1.42Z"/>
  <path class="cls-6" d="M18.91,126.92c-1.09-.33-1.47-.2-1.61-.02-.36.45.51,1.51,0,2.29-.16.25-.4.37-.35.5.09.23.82-.06,1.16.31.26.29.05.71.35.96.16.14.39.15.54.13-.03-1.39-.06-2.78-.09-4.17Z"/>
  <path class="cls-6" d="M16.11,130.87c.5-.1,1.15-.17,1.38.15.17.24-.07.45,0,1.03.07.53.31.62.61,1.62.06.19.12.42.04.68-.08.26-.26.42-.33.48-.57.49-1.51.2-1.59.17-.04-1.37-.07-2.75-.11-4.12Z"/>
  <path class="cls-6" d="M16.83,87.54c-1.86,5.72-3.07,11.39-3.71,17.38-.77-5.95.58-12.26,3.71-17.38h0Z"/>
  <path class="cls-6" d="M13.73,104.42c-.73,1.22-1.08,2.73-.95,4.25-.46-1.45-.48-3.11.03-4.66l.91.41h0Z"/>
  <path class="cls-6" d="M13.41,104.29c-.73,1.22-1.08,2.73-.95,4.25-.46-1.45-.48-3.11.03-4.66l.91.41h0Z"/>
  <path class="cls-6" d="M13.41,105.1c-.73,1.22-1.08,2.73-.95,4.25-.46-1.45-.48-3.11.03-4.66l.91.41h0Z"/>
  <path class="cls-6" d="M13.73,103.89c-.73,1.22-1.08,2.73-.95,4.25-.46-1.45-.48-3.11.03-4.66l.91.41h0Z"/>
  <path class="cls-8" d="M33.86,104.35c.32,1.42,1.09,2.21,1.68,3.02.99,1.35,1.46,2.73,2.19,8.77,1.11,9.2,1.21,15.88,1.23,17.57.02,1.94.01,3.53,0,4.53h2.7c-.05-1.44-.1-2.88-.15-4.31-.66-6.18-.8-11.1-.8-14.55,0-1.88.04-4.27,0-7.59-.03-2.54-.06-1.91-.07-3.67-.02-2.92.16-4.35-.22-5.56-.67-2.12-3.23-4.16-4.9-3.56-1.57.56-2.1,3.35-1.66,5.33Z"/>
  <path class="cls-6" d="M41.67,138.25h-2.7v-3.58c.85,0,1.7-.02,2.55-.03.05,1.2.1,2.4.15,3.61Z"/>
  <path class="cls-6" d="M40.37,102.58c-.47.2-1.39.67-1.72,1.61-.4,1.13.23,2.42.42,2.81.4.81.79,1.04.78,1.69,0,.52-.26.65-.54,1.33-.06.14-.86,2.15.03,3.14.14.15.51.49,1.34.54,0-1.14,0-2.86,0-3.85,0-2.36,0-3.1-.05-4.2-.07-1.3-.18-2.36-.26-3.06Z"/>
  <path class="cls-6" d="M35.55,107.37c1.03,1.22,1.78,1.43,2.29,1.37.47-.05.76-.34,1-.18.45.3-.08,1.84-.12,1.96-.36,1.02-.72,1.08-.69,1.69.03.68.44,1.04.24,1.39-.15.26-.54.32-.82.33-.13-1-.35-2.15-.72-3.4-.35-1.21-.77-2.27-1.18-3.16Z"/>
  <path class="cls-6" d="M37.55,115.16c1.03-.27,1.44-.12,1.62.09.38.43-.21,1.08.03,2.24.2.95.72,1.11.7,1.75-.02.44-.29,1.07-1.5,1.81-.08-.8-.18-1.62-.29-2.47-.16-1.19-.35-2.33-.56-3.42Z"/>
  <path class="cls-6" d="M40.68,114.52c-.19.27-.45.68-.66,1.24-.2.54-.34.9-.24,1.33.14.62.66.99.88,1.12-.02-.53-.04-1.09-.04-1.66,0-.7.02-1.38.05-2.03Z"/>
  <path class="cls-6" d="M40.67,120.83c-.24.19-.85.71-1.08,1.6-.06.22-.22.83,0,1.5.21.64.65,1.02.52,1.19-.11.14-.47-.03-.52.05-.04.08.18.33,1.26,1.07-.06-1.81-.12-3.61-.18-5.42Z"/>
  <path class="cls-6" d="M38.76,125.93c.25.12.63.35.98.72.15.16.26.28.36.47.42.8.03,1.71,0,1.78-.25.57-.52.49-.62.93-.16.71.47,1.26.25,1.52-.08.09-.27.17-.84,0-.05-1.81-.09-3.61-.14-5.42Z"/>
  <path class="cls-6" d="M41.47,133.93c-1.49-.06-1.86-.25-1.89-.43-.04-.26.67-.35.89-.94.3-.79-.65-1.54-.33-2.12.09-.17.32-.37.96-.43.12,1.31.24,2.61.37,3.92Z"/>
  <path class="cls-6" d="M35.33,99.53c-.35.26-.07.67-.33,1.78-.22.93-.58,1.35-.33,1.78.06.11.13.15.39.54.19.27.28.41.33.54.17.41.06.64.21.72.16.09.33-.14.63-.06.19.05.21.16.36.21.35.12,1.01-.25,1.12-.72.13-.56-.63-.74-.78-1.69-.12-.73.27-.97,0-1.51-.22-.46-.66-.62-.6-.94.05-.25.35-.3.33-.45-.03-.24-.89-.54-1.33-.21Z"/>
  <rect class="cls-1" x="86.58" y="31.16" width="3.29" height="20.64"/>
  <rect class="cls-7" x="89.67" y="39.15" width="2.99" height="13.04"/>
  <rect class="cls-10" x="103.53" y="33.89" width="4.58" height="20.72"/>
  <rect class="cls-5" x="82.77" y="38.75" width="3.83" height="13.38"/>
  <path class="cls-6" d="M16.42,91.55c.71-.22,1.06-.1,1.24.05.57.47-.1,1.53.52,2.64.41.73,1.06.92.99,1.13-.06.16-.52.27-2.51-.12-.08-1.24-.16-2.47-.24-3.71Z"/>
  <path class="cls-6" d="M21.81,99.69c.21-.02.4.08.67.24.24.13.94.52.93,1-.01.34-.38.56-1,.93-.8.47-1.42.83-1.7.62-.51-.4.2-2.7,1.1-2.78Z"/>
  <path class="cls-9" d="M116.73,58.5c-.23-9.68-1-13.13-1.9-13.71-.02-.01-.17-.11-.36-.25-.5-.36-1.54-1.12-2.34-2.46-.76-1.27-.97-2.5-1.04-3.23.31.19.72.47,1.15.86,1.88,1.72,2.25,3.85,2.42,3.8.17-.05-.09-2.36-1.21-5.13-.71-1.77-1.53-3.13-2.13-4.03.32-.38,1.21-1.54,1.33-3.28.12-1.81-.66-3.11-.92-3.51-.35.8-.74,1.91-.92,3.28-.13,1-.12,1.88-.06,2.59-.69-.98-1.38-1.96-2.07-2.94-.71-.03-1.6-.14-2.59-.4-1.27-.34-2.28-.84-3-1.27.3-.22.99-.66,1.96-.69,1.71-.06,2.8,1.21,2.94,1.38-.71-1.34-1.42-2.69-2.13-4.03.29-.6.66-1.5.92-2.65,0-.03.06-.28.11-.55.13-.7.29-1.99.12-3.89-.4.46-1.01,1.29-1.38,2.48-.44,1.4-.33,2.6-.23,3.23-1.17-1.44-1.73-2.75-2.02-3.63-.38-1.15-.67-2.04-.69-3.28-.02-1.05.16-1.79-.35-2.48-.35-.47-.98-.86-1.27-.69-.47.28.05,1.97.29,2.77,1.19,3.88,9.05,17.09,13.59,24.57"/>
  <rect class="cls-10" x="93.02" y="42.49" width="9.95" height="3.72"/>
  <rect class="cls-5" x="92.67" y="46.01" width="10.86" height="3.65"/>
  <rect class="cls-1" x="92.66" y="49.15" width="10.87" height="3.65"/>
  <path class="cls-3" d="M111.4,0c-1.37,15.59.35,25.62,2.31,32.06,1.55,5.09,1.57,8.52,2.25,15.2.76,7.53.69,12.1-.57,12.44-1.27.34-2.35-3.94-6.9-6-.46-.21-1.15-.48-5.47-1.01-6.14-.74-9.86-1.19-14.84-.96-1.89.09-3.78.1-5.66.24-2.26.18-3.95.41-6.06-.24-.83-.26-1.67-.53-2.42-1.29-.72-.73-.8-1.35-1.62-2.3-.63-.72-1.3-1.18-1.77-1.45.75,1.78,2.09,4.13,4.56,5.48,2.11,1.14,3.73.84,7.85.73,6.61-.18,11.91-.28,17.35,1.83.52.2,2.54,1,4.93,2.56,0,0,5.06,3.29,8.95,9.13,4.07,6.12,4.51,36.68-3.47,77.42,4.8.04,9.6.08,14.4.11-.42-4.71-.97-11.93-1.21-20.83-.13-4.87-.07-6.42-.13-17.2-.08-12.45-.11-18.67-.27-23.62-.5-15.43-1.28-15.86-1.1-24.83.02-1.08.06-2.05.11-3.03.5-8.89,1.9-17.6,1.9-17.6.83-5,1.88-14.92,2.74-36.74-5.28-.03-10.56-.07-15.85-.1Z"/>
</svg>